<?xml version="1.0" encoding="UTF-8"?>
<svg width="50" height="50" viewBox="0 0 50 50" fill="none" xmlns="http://www.w3.org/2000/svg">
    <defs>
        <style>
            .main { fill:#12B8A9; }
            .ink { stroke:#000000; }
            .soft { fill:#12B8A9; opacity:.10; }
        </style>
    </defs>

    <!-- Clipboard-Body -->
    <rect x="8" y="10" width="34" height="30" rx="4" class="soft" />
    <rect x="8" y="10" width="34" height="30" rx="4" class="ink" stroke-width="2" fill="none" />

    <!-- Klemme -->
    <rect x="18" y="6" width="14" height="8" rx="2" class="main" />
    <rect x="18" y="6" width="14" height="8" rx="2" class="ink" stroke-width="1.5" fill="none" />
    <circle cx="25" cy="10" r="2" fill="#000000" />

    <!-- Formularzeilen -->
    <g class="ink" stroke-width="2" stroke-linecap="round" opacity=".9">
        <line x1="14" y1="20" x2="30" y2="20" />
        <line x1="14" y1="25" x2="32" y2="25" />
        <line x1="14" y1="30" x2="28" y2="30" />
    </g>

    <!-- Zahnrad-Badge (schwarz) -->
    <circle cx="37" cy="34" r="6.8" class="main" />
    <g fill="none" stroke="#000000" stroke-width="2" stroke-linecap="round" stroke-linejoin="round">
        <circle cx="37" cy="34" r="2.6" />
        <path d="M37 29.8v2" />
        <path d="M37 36.2v2" />
        <path d="M32.8 34h2" />
        <path d="M39.2 34h2" />
        <path d="M34.2 31.8l1.4 1.4" />
        <path d="M38.4 36l1.4 1.4" />
        <path d="M39.8 31.8l-1.4 1.4" />
        <path d="M35.6 36l-1.4 1.4" />
    </g>
</svg>
